<mxfile host="app.diagrams.net" modified="2020-11-07T13:02:12.081Z" agent="5.0 (Windows NT 10.0; Win64; x64) AppleWebKit/537.36 (KHTML, like Gecko) Chrome/86.0.4240.183 Safari/537.36" etag="gpWNi5c4qvp-O_dDNxzp" version="13.9.2" type="github">
  <diagram id="xnugoBL5D1gIcZdngLbt" name="Page-1">
    <mxGraphModel dx="2062" dy="1154" grid="1" gridSize="10" guides="1" tooltips="1" connect="1" arrows="1" fold="1" page="1" pageScale="1" pageWidth="827" pageHeight="1169" math="0" shadow="0">
      <root>
        <mxCell id="0" />
        <mxCell id="1" parent="0" />
        <mxCell id="KyAmiD-GBGvBCOUDd8Ez-1" value="" style="rounded=0;whiteSpace=wrap;html=1;" vertex="1" parent="1">
          <mxGeometry x="100" y="210" width="840" height="360" as="geometry" />
        </mxCell>
        <mxCell id="KyAmiD-GBGvBCOUDd8Ez-2" value="Customer" style="shape=umlActor;verticalLabelPosition=bottom;verticalAlign=top;html=1;outlineConnect=0;" vertex="1" parent="1">
          <mxGeometry x="50" y="385" width="30" height="60" as="geometry" />
        </mxCell>
        <mxCell id="KyAmiD-GBGvBCOUDd8Ez-3" value="Manager" style="shape=umlActor;verticalLabelPosition=bottom;verticalAlign=top;html=1;outlineConnect=0;" vertex="1" parent="1">
          <mxGeometry x="980" y="385" width="30" height="60" as="geometry" />
        </mxCell>
        <mxCell id="KyAmiD-GBGvBCOUDd8Ez-4" value="메뉴 선택" style="ellipse;whiteSpace=wrap;html=1;" vertex="1" parent="1">
          <mxGeometry x="200" y="280" width="140" height="70" as="geometry" />
        </mxCell>
        <mxCell id="KyAmiD-GBGvBCOUDd8Ez-5" value="주문내역(카트) 관리" style="ellipse;whiteSpace=wrap;html=1;" vertex="1" parent="1">
          <mxGeometry x="200" y="380" width="140" height="70" as="geometry" />
        </mxCell>
        <mxCell id="KyAmiD-GBGvBCOUDd8Ez-6" value="결제 수단 선택" style="ellipse;whiteSpace=wrap;html=1;" vertex="1" parent="1">
          <mxGeometry x="200" y="480" width="140" height="70" as="geometry" />
        </mxCell>
        <mxCell id="KyAmiD-GBGvBCOUDd8Ez-7" value="주문 결제" style="ellipse;whiteSpace=wrap;html=1;" vertex="1" parent="1">
          <mxGeometry x="440" y="380" width="140" height="70" as="geometry" />
        </mxCell>
        <mxCell id="KyAmiD-GBGvBCOUDd8Ez-8" value="메뉴 관리" style="ellipse;whiteSpace=wrap;html=1;" vertex="1" parent="1">
          <mxGeometry x="680" y="280" width="140" height="70" as="geometry" />
        </mxCell>
        <mxCell id="KyAmiD-GBGvBCOUDd8Ez-9" value="로그인" style="ellipse;whiteSpace=wrap;html=1;" vertex="1" parent="1">
          <mxGeometry x="680" y="380" width="140" height="70" as="geometry" />
        </mxCell>
        <mxCell id="KyAmiD-GBGvBCOUDd8Ez-10" value="매출 현황 보기" style="ellipse;whiteSpace=wrap;html=1;" vertex="1" parent="1">
          <mxGeometry x="680" y="480" width="140" height="70" as="geometry" />
        </mxCell>
        <mxCell id="KyAmiD-GBGvBCOUDd8Ez-11" value="" style="endArrow=none;html=1;edgeStyle=orthogonalEdgeStyle;entryX=0;entryY=0.5;entryDx=0;entryDy=0;" edge="1" parent="1" target="KyAmiD-GBGvBCOUDd8Ez-4">
          <mxGeometry relative="1" as="geometry">
            <mxPoint x="120" y="415" as="sourcePoint" />
            <mxPoint x="170" y="320" as="targetPoint" />
            <Array as="points">
              <mxPoint x="120" y="415" />
              <mxPoint x="120" y="315" />
            </Array>
          </mxGeometry>
        </mxCell>
        <mxCell id="KyAmiD-GBGvBCOUDd8Ez-13" value="&lt;font style=&quot;font-size: 20px&quot;&gt;*&lt;/font&gt;" style="edgeLabel;resizable=0;html=1;align=right;verticalAlign=bottom;" connectable="0" vertex="1" parent="KyAmiD-GBGvBCOUDd8Ez-11">
          <mxGeometry x="1" relative="1" as="geometry" />
        </mxCell>
        <mxCell id="KyAmiD-GBGvBCOUDd8Ez-17" value="" style="endArrow=none;html=1;edgeStyle=orthogonalEdgeStyle;entryX=0;entryY=0.5;entryDx=0;entryDy=0;" edge="1" parent="1" target="KyAmiD-GBGvBCOUDd8Ez-6">
          <mxGeometry relative="1" as="geometry">
            <mxPoint x="120" y="410" as="sourcePoint" />
            <mxPoint x="190" y="520" as="targetPoint" />
            <Array as="points">
              <mxPoint x="120" y="430" />
              <mxPoint x="120" y="520" />
              <mxPoint x="200" y="520" />
            </Array>
          </mxGeometry>
        </mxCell>
        <mxCell id="KyAmiD-GBGvBCOUDd8Ez-19" value="&lt;font style=&quot;font-size: 20px&quot;&gt;*&lt;/font&gt;" style="edgeLabel;resizable=0;html=1;align=right;verticalAlign=bottom;" connectable="0" vertex="1" parent="KyAmiD-GBGvBCOUDd8Ez-17">
          <mxGeometry x="1" relative="1" as="geometry" />
        </mxCell>
        <mxCell id="KyAmiD-GBGvBCOUDd8Ez-20" value="" style="endArrow=none;html=1;edgeStyle=orthogonalEdgeStyle;entryX=0;entryY=0.5;entryDx=0;entryDy=0;" edge="1" parent="1" source="KyAmiD-GBGvBCOUDd8Ez-2" target="KyAmiD-GBGvBCOUDd8Ez-5">
          <mxGeometry relative="1" as="geometry">
            <mxPoint x="90" y="415" as="sourcePoint" />
            <mxPoint x="190" y="414.5" as="targetPoint" />
          </mxGeometry>
        </mxCell>
        <mxCell id="KyAmiD-GBGvBCOUDd8Ez-21" value="&lt;font style=&quot;font-size: 20px&quot;&gt;*&lt;/font&gt;" style="edgeLabel;resizable=0;html=1;align=left;verticalAlign=bottom;" connectable="0" vertex="1" parent="KyAmiD-GBGvBCOUDd8Ez-20">
          <mxGeometry x="-1" relative="1" as="geometry" />
        </mxCell>
        <mxCell id="KyAmiD-GBGvBCOUDd8Ez-22" value="&lt;font style=&quot;font-size: 20px&quot;&gt;*&lt;/font&gt;" style="edgeLabel;resizable=0;html=1;align=right;verticalAlign=bottom;" connectable="0" vertex="1" parent="KyAmiD-GBGvBCOUDd8Ez-20">
          <mxGeometry x="1" relative="1" as="geometry" />
        </mxCell>
        <mxCell id="KyAmiD-GBGvBCOUDd8Ez-23" value="&lt;font style=&quot;font-size: 13px&quot;&gt;&amp;lt;&amp;lt; include &amp;gt;&amp;gt;&lt;/font&gt;" style="html=1;verticalAlign=bottom;endArrow=open;dashed=1;endSize=8;exitX=0.243;exitY=0.043;exitDx=0;exitDy=0;exitPerimeter=0;entryX=1;entryY=0.5;entryDx=0;entryDy=0;" edge="1" parent="1" source="KyAmiD-GBGvBCOUDd8Ez-7" target="KyAmiD-GBGvBCOUDd8Ez-4">
          <mxGeometry x="-0.2186" y="-18" relative="1" as="geometry">
            <mxPoint x="460" y="330" as="sourcePoint" />
            <mxPoint x="380" y="330" as="targetPoint" />
            <mxPoint as="offset" />
          </mxGeometry>
        </mxCell>
        <mxCell id="KyAmiD-GBGvBCOUDd8Ez-24" value="&lt;font style=&quot;font-size: 13px&quot;&gt;&amp;lt;&amp;lt; include &amp;gt;&amp;gt;&lt;/font&gt;" style="html=1;verticalAlign=bottom;endArrow=open;dashed=1;endSize=8;entryX=1;entryY=0.5;entryDx=0;entryDy=0;exitX=0;exitY=0.5;exitDx=0;exitDy=0;" edge="1" parent="1" source="KyAmiD-GBGvBCOUDd8Ez-7" target="KyAmiD-GBGvBCOUDd8Ez-5">
          <mxGeometry y="-10" relative="1" as="geometry">
            <mxPoint x="430" y="414.5" as="sourcePoint" />
            <mxPoint x="350" y="414.5" as="targetPoint" />
            <mxPoint as="offset" />
          </mxGeometry>
        </mxCell>
        <mxCell id="KyAmiD-GBGvBCOUDd8Ez-25" value="&lt;font style=&quot;font-size: 13px&quot;&gt;&amp;lt;&amp;lt; include &amp;gt;&amp;gt;&lt;/font&gt;" style="html=1;verticalAlign=bottom;endArrow=open;dashed=1;endSize=8;entryX=1;entryY=0.5;entryDx=0;entryDy=0;exitX=0.393;exitY=1.029;exitDx=0;exitDy=0;exitPerimeter=0;" edge="1" parent="1" source="KyAmiD-GBGvBCOUDd8Ez-7" target="KyAmiD-GBGvBCOUDd8Ez-6">
          <mxGeometry y="-10" relative="1" as="geometry">
            <mxPoint x="454" y="500" as="sourcePoint" />
            <mxPoint x="374" y="500" as="targetPoint" />
            <mxPoint as="offset" />
          </mxGeometry>
        </mxCell>
        <mxCell id="KyAmiD-GBGvBCOUDd8Ez-26" value="" style="endArrow=none;html=1;edgeStyle=orthogonalEdgeStyle;exitX=1;exitY=0.5;exitDx=0;exitDy=0;" edge="1" parent="1" source="KyAmiD-GBGvBCOUDd8Ez-8">
          <mxGeometry relative="1" as="geometry">
            <mxPoint x="840" y="320" as="sourcePoint" />
            <mxPoint x="920" y="410" as="targetPoint" />
          </mxGeometry>
        </mxCell>
        <mxCell id="KyAmiD-GBGvBCOUDd8Ez-27" value="&lt;font style=&quot;font-size: 20px&quot;&gt;*&lt;/font&gt;" style="edgeLabel;resizable=0;html=1;align=left;verticalAlign=bottom;" connectable="0" vertex="1" parent="KyAmiD-GBGvBCOUDd8Ez-26">
          <mxGeometry x="-1" relative="1" as="geometry" />
        </mxCell>
        <mxCell id="KyAmiD-GBGvBCOUDd8Ez-29" value="" style="endArrow=none;html=1;edgeStyle=orthogonalEdgeStyle;exitX=1;exitY=0.5;exitDx=0;exitDy=0;" edge="1" parent="1" source="KyAmiD-GBGvBCOUDd8Ez-10">
          <mxGeometry relative="1" as="geometry">
            <mxPoint x="840" y="520" as="sourcePoint" />
            <mxPoint x="920" y="410" as="targetPoint" />
            <Array as="points">
              <mxPoint x="920" y="515" />
            </Array>
          </mxGeometry>
        </mxCell>
        <mxCell id="KyAmiD-GBGvBCOUDd8Ez-30" value="&lt;font style=&quot;font-size: 20px&quot;&gt;*&lt;/font&gt;" style="edgeLabel;resizable=0;html=1;align=left;verticalAlign=bottom;" connectable="0" vertex="1" parent="KyAmiD-GBGvBCOUDd8Ez-29">
          <mxGeometry x="-1" relative="1" as="geometry" />
        </mxCell>
        <mxCell id="KyAmiD-GBGvBCOUDd8Ez-33" value="" style="endArrow=none;html=1;edgeStyle=orthogonalEdgeStyle;exitX=1;exitY=0.493;exitDx=0;exitDy=0;exitPerimeter=0;" edge="1" parent="1" source="KyAmiD-GBGvBCOUDd8Ez-9">
          <mxGeometry relative="1" as="geometry">
            <mxPoint x="827" y="414.5" as="sourcePoint" />
            <mxPoint x="970" y="415" as="targetPoint" />
            <Array as="points">
              <mxPoint x="910" y="415" />
              <mxPoint x="910" y="415" />
            </Array>
          </mxGeometry>
        </mxCell>
        <mxCell id="KyAmiD-GBGvBCOUDd8Ez-34" value="&lt;font style=&quot;font-size: 20px&quot;&gt;*&lt;/font&gt;" style="edgeLabel;resizable=0;html=1;align=left;verticalAlign=bottom;" connectable="0" vertex="1" parent="KyAmiD-GBGvBCOUDd8Ez-33">
          <mxGeometry x="-1" relative="1" as="geometry" />
        </mxCell>
        <mxCell id="KyAmiD-GBGvBCOUDd8Ez-35" value="&lt;font style=&quot;font-size: 20px&quot;&gt;*&lt;/font&gt;" style="edgeLabel;resizable=0;html=1;align=right;verticalAlign=bottom;" connectable="0" vertex="1" parent="KyAmiD-GBGvBCOUDd8Ez-33">
          <mxGeometry x="1" relative="1" as="geometry" />
        </mxCell>
        <mxCell id="KyAmiD-GBGvBCOUDd8Ez-36" value="&lt;font style=&quot;font-size: 13px&quot;&gt;&amp;lt;&amp;lt; include &amp;gt;&amp;gt;&lt;/font&gt;" style="html=1;verticalAlign=bottom;endArrow=open;dashed=1;endSize=8;entryX=0;entryY=0.5;entryDx=0;entryDy=0;exitX=0;exitY=0.5;exitDx=0;exitDy=0;" edge="1" parent="1" source="KyAmiD-GBGvBCOUDd8Ez-8" target="KyAmiD-GBGvBCOUDd8Ez-9">
          <mxGeometry x="0.0861" relative="1" as="geometry">
            <mxPoint x="660" y="300" as="sourcePoint" />
            <mxPoint x="660" y="410" as="targetPoint" />
            <Array as="points">
              <mxPoint x="660" y="370" />
            </Array>
            <mxPoint as="offset" />
          </mxGeometry>
        </mxCell>
        <mxCell id="KyAmiD-GBGvBCOUDd8Ez-38" value="&lt;font style=&quot;font-size: 13px&quot;&gt;&amp;lt;&amp;lt; include &amp;gt;&amp;gt;&lt;/font&gt;" style="html=1;verticalAlign=bottom;endArrow=open;dashed=1;endSize=8;exitX=0;exitY=0.5;exitDx=0;exitDy=0;entryX=0.014;entryY=0.629;entryDx=0;entryDy=0;entryPerimeter=0;" edge="1" parent="1" source="KyAmiD-GBGvBCOUDd8Ez-10" target="KyAmiD-GBGvBCOUDd8Ez-9">
          <mxGeometry x="-0.017" relative="1" as="geometry">
            <mxPoint x="670" y="510" as="sourcePoint" />
            <mxPoint x="660" y="420" as="targetPoint" />
            <Array as="points">
              <mxPoint x="660" y="470" />
            </Array>
            <mxPoint as="offset" />
          </mxGeometry>
        </mxCell>
        <mxCell id="KyAmiD-GBGvBCOUDd8Ez-39" value="&lt;font style=&quot;font-size: 15px&quot;&gt;Subway&amp;nbsp; KIOSK&lt;/font&gt;" style="text;html=1;strokeColor=none;fillColor=none;align=center;verticalAlign=middle;whiteSpace=wrap;rounded=0;" vertex="1" parent="1">
          <mxGeometry x="460" y="230" width="100" height="20" as="geometry" />
        </mxCell>
      </root>
    </mxGraphModel>
  </diagram>
</mxfile>
